<svg width="13" height="12" viewBox="0 0 13 12" fill="none" xmlns="http://www.w3.org/2000/svg">
<path d="M9.9395 5.74997H11.147L10.293 4.89634L7.07255 1.67742C7.02549 1.63036 6.99905 1.56653 6.99905 1.49997C6.99905 1.43342 7.02549 1.36959 7.07255 1.32252C7.11962 1.27546 7.18344 1.24902 7.25 1.24902C7.31656 1.24902 7.38038 1.27546 7.42745 1.32252L11.9274 5.82253L11.9279 5.82297C11.9512 5.84619 11.9696 5.87378 11.9823 5.90416C11.9949 5.93453 12.0013 5.96709 12.0013 5.99997C12.0013 6.03285 11.9949 6.06541 11.9822 6.09579C11.9696 6.12616 11.9512 6.15375 11.9279 6.17697L11.9274 6.17742L7.42745 10.6774C7.38039 10.7245 7.31656 10.7509 7.25 10.7509C7.18344 10.7509 7.11961 10.7245 7.07255 10.6774C7.02549 10.6304 6.99905 10.5665 6.99905 10.5C6.99905 10.4334 7.02549 10.3696 7.07255 10.3225L10.293 7.10361L11.147 6.24997H9.9395H1.25C1.1837 6.24997 1.12011 6.22363 1.07322 6.17675C1.02634 6.12986 1 6.06628 1 5.99997C1 5.93367 1.02634 5.87008 1.07322 5.82319C1.12011 5.77631 1.1837 5.74997 1.25 5.74997H9.9395Z" fill="#FFFFFF" stroke="#FFFFFF"/>
</svg>
