<svg width="200" height="200" viewBox="0 0 200 200" fill="none" xmlns="http://www.w3.org/2000/svg">
<g opacity="0.5">
<path d="M162.733 22.1011C161.904 21.4375 161.074 20.7738 160.211 20.1433L20.1436 160.244C20.774 161.074 21.4377 161.937 22.1014 162.766L162.733 22.1011Z" fill="#989CFF"/>
<path d="M128.517 4.11271C127.356 3.78088 126.195 3.44904 125 3.15039L3.1499 125C3.44855 126.162 3.78039 127.323 4.11223 128.518L128.517 4.11271Z" fill="#989CFF"/>
<path d="M152.546 14.8679C151.617 14.3038 150.688 13.7397 149.759 13.2087L13.2085 149.759C13.7394 150.688 14.3036 151.617 14.8677 152.547L152.546 14.8679Z" fill="#989CFF"/>
<path d="M141.196 8.82659C140.167 8.36202 139.139 7.89745 138.077 7.46606L7.46631 138.077C7.8977 139.105 8.36227 140.167 8.82684 141.196L141.196 8.82659Z" fill="#989CFF"/>
<path d="M114.219 0.990674C112.892 0.791572 111.564 0.658838 110.237 0.49292L0.499023 110.264C0.631758 111.592 0.797676 112.919 0.996777 114.246L114.219 0.990674Z" fill="#989CFF"/>
<path d="M170.73 29.2618C170.365 28.8968 169.967 28.5318 169.602 28.1667L28.1736 169.595C28.5386 169.96 28.9036 170.358 29.2686 170.723C29.6337 171.088 30.0319 171.453 30.3969 171.818L171.825 30.39C171.46 30.025 171.095 29.6268 170.73 29.2618Z" fill="#989CFF"/>
<path d="M97.8252 0C96.2655 0.0331836 94.7059 0.0995507 93.1463 0.199101L0.232285 93.1131C0.0995507 94.7059 0.0331836 96.2655 0 97.8252L97.8252 0Z" fill="#989CFF"/>
<path d="M2.42383 77.9831L77.9828 2.42407C75.9586 2.88864 73.9676 3.3864 71.9766 3.9837L3.95027 72.01C3.38615 73.9679 2.85521 75.9921 2.42383 77.9831Z" fill="#989CFF"/>
<path d="M199.801 106.887C199.9 105.327 199.967 103.767 200 102.208L102.208 200C103.768 199.967 105.327 199.9 106.887 199.801L199.801 106.887Z" fill="#989CFF"/>
<path d="M199.498 89.7667C199.365 88.4394 199.2 87.112 199 85.7847L85.7781 199.04C87.1054 199.239 88.4328 199.372 89.7601 199.538L199.498 89.7667Z" fill="#989CFF"/>
<path d="M49.2111 13.8049C42.1098 18.0192 35.4067 23.1627 29.3009 29.2685C23.1952 35.3743 18.0517 42.0773 13.8374 49.1786L49.2111 13.8049Z" fill="#989CFF"/>
<path d="M196.047 128.021C196.611 126.03 197.142 124.039 197.606 122.014L122.014 197.573C124.038 197.109 126.029 196.611 128.02 196.014L196.047 128.021Z" fill="#989CFF"/>
<path d="M150.817 186.19C157.918 181.976 164.621 176.832 170.727 170.727C176.833 164.621 181.976 157.918 186.19 150.816L150.817 186.19Z" fill="#989CFF"/>
<path d="M186.793 50.2423C186.262 49.3131 185.698 48.384 185.134 47.4548L47.4553 185.133C48.3845 185.698 49.3136 186.262 50.2427 186.793L186.793 50.2423Z" fill="#989CFF"/>
<path d="M179.89 39.7886C179.259 38.959 178.595 38.0962 177.932 37.2666L37.2666 177.932C38.0962 178.595 38.9258 179.259 39.7886 179.89L179.89 39.7886Z" fill="#989CFF"/>
<path d="M196.875 74.9918C196.576 73.8304 196.244 72.669 195.913 71.4744L71.4741 195.913C72.6355 196.245 73.797 196.576 74.9916 196.875L196.875 74.9918Z" fill="#989CFF"/>
<path d="M192.534 61.9166C192.102 60.8879 191.638 59.8261 191.173 58.7974L58.8037 191.167C59.8324 191.631 60.8611 192.096 61.923 192.527L192.534 61.9166Z" fill="#989CFF"/>
</g>
</svg>
