<svg width="535" height="543" viewBox="0 0 535 543" fill="none" xmlns="http://www.w3.org/2000/svg">
<path d="M523.678 258.184C523.821 261.124 523.916 264.078 523.964 267.043L523.464 267.051C523.488 268.531 523.5 270.014 523.5 271.5C523.5 272.986 523.488 274.469 523.464 275.949L523.964 275.957C523.916 278.922 523.821 281.875 523.678 284.816L523.179 284.792C523.035 287.758 522.843 290.712 522.605 293.651L523.103 293.692C522.863 296.651 522.575 299.596 522.241 302.527L521.744 302.47C521.408 305.411 521.025 308.337 520.596 311.247L521.09 311.32C520.656 314.26 520.175 317.185 519.647 320.093L519.156 320.003C518.627 322.918 518.051 325.815 517.429 328.695L517.918 328.801C517.293 331.698 516.621 334.577 515.903 337.438L515.418 337.316C514.697 340.192 513.93 343.048 513.117 345.885L513.598 346.022C512.781 348.874 511.918 351.706 511.011 354.517L510.535 354.363C509.626 357.178 508.672 359.972 507.674 362.744L508.144 362.913C507.139 365.705 506.089 368.474 504.995 371.22L504.531 371.035C503.436 373.785 502.296 376.512 501.114 379.214L501.572 379.415C500.384 382.13 499.153 384.82 497.879 387.486L497.428 387.27C496.152 389.939 494.833 392.584 493.473 395.201L493.916 395.432C492.549 398.062 491.139 400.667 489.689 403.243L489.253 402.998C487.802 405.575 486.31 408.124 484.777 410.645L485.204 410.905C483.665 413.436 482.085 415.938 480.466 418.411L480.048 418.137C478.427 420.612 476.766 423.057 475.066 425.471L475.475 425.759C473.769 428.181 472.025 430.573 470.242 432.932L469.843 432.631C468.061 434.989 466.241 437.316 464.383 439.609L464.772 439.924C462.907 442.226 461.005 444.495 459.067 446.73L458.689 446.402C456.752 448.635 454.779 450.834 452.77 452.998L453.136 453.338C451.121 455.508 449.071 457.643 446.986 459.742L446.631 459.389C444.548 461.485 442.43 463.545 440.279 465.568L440.621 465.932C438.464 467.961 436.273 469.951 434.049 471.904L433.719 471.528C431.499 473.477 429.245 475.388 426.96 477.26L427.277 477.647C424.987 479.522 422.665 481.358 420.312 483.154L420.009 482.757C417.661 484.549 415.282 486.301 412.872 488.011L413.162 488.419C410.749 490.132 408.306 491.803 405.835 493.433L405.559 493.015C403.094 494.641 400.599 496.224 398.077 497.763L398.337 498.19C395.812 499.732 393.258 501.23 390.678 502.684L390.432 502.248C387.861 503.697 385.263 505.102 382.639 506.462L382.869 506.906C380.243 508.267 377.592 509.582 374.915 510.852L374.701 510.4C372.033 511.666 369.341 512.885 366.626 514.058L366.824 514.517C364.111 515.689 361.374 516.814 358.614 517.891L358.432 517.426C355.685 518.498 352.915 519.524 350.124 520.501L350.289 520.973C347.499 521.95 344.687 522.879 341.855 523.759L341.707 523.281C338.891 524.156 336.054 524.982 333.198 525.759L333.329 526.242C330.481 527.016 327.613 527.742 324.726 528.418L324.612 527.931C321.742 528.603 318.854 529.225 315.948 529.797L316.045 530.287C313.146 530.858 310.23 531.378 307.297 531.847L307.218 531.354C304.312 531.819 301.391 532.233 298.454 532.597L298.515 533.093C295.587 533.456 292.644 533.768 289.686 534.028L289.642 533.53C286.705 533.789 283.753 533.996 280.789 534.152L280.815 534.651C277.875 534.806 274.922 534.909 271.956 534.961L271.948 534.461C270.468 534.487 268.986 534.5 267.5 534.5C266.014 534.5 264.532 534.487 263.052 534.461L263.044 534.961C260.078 534.909 257.125 534.806 254.185 534.651L254.212 534.152C251.247 533.996 248.295 533.789 245.358 533.53L245.314 534.028C242.357 533.768 239.413 533.456 236.485 533.093L236.546 532.597C233.609 532.233 230.688 531.819 227.782 531.354L227.703 531.848C224.771 531.378 221.854 530.858 218.955 530.287L219.052 529.797C216.146 529.225 213.258 528.603 210.388 527.931L210.274 528.418C207.387 527.742 204.519 527.016 201.671 526.242L201.802 525.759C198.946 524.982 196.109 524.156 193.293 523.281L193.145 523.759C190.313 522.879 187.501 521.95 184.711 520.973L184.876 520.501C182.085 519.524 179.315 518.498 176.568 517.426L176.386 517.891C173.626 516.814 170.889 515.689 168.176 514.517L168.374 514.058C165.659 512.885 162.967 511.666 160.299 510.4L160.085 510.852C157.408 509.582 154.757 508.267 152.131 506.906L152.361 506.462C149.737 505.102 147.139 503.697 144.568 502.248L144.322 502.684C141.742 501.23 139.188 499.732 136.663 498.19L136.923 497.763C134.401 496.224 131.906 494.641 129.441 493.015L129.165 493.433C126.694 491.803 124.251 490.132 121.838 488.419L122.127 488.011C119.718 486.3 117.339 484.549 114.991 482.757L114.688 483.154C112.335 481.358 110.013 479.522 107.723 477.647L108.04 477.26C105.755 475.388 103.501 473.477 101.281 471.528L100.951 471.904C98.7271 469.951 96.536 467.961 94.3787 465.932L94.7212 465.568C92.5697 463.545 90.452 461.485 88.3689 459.389L88.0143 459.741C85.9291 457.643 83.8787 455.508 81.8639 453.338L82.2304 452.998C80.2212 450.834 78.2477 448.635 76.3106 446.402L75.9329 446.73C73.9944 444.495 72.0925 442.226 70.2281 439.924L70.6166 439.609C68.7592 437.316 66.939 434.989 65.157 432.631L64.758 432.932C62.9752 430.573 61.2306 428.181 59.5251 425.759L59.9339 425.471C58.2342 423.057 56.5734 420.612 54.9524 418.137L54.5342 418.411C52.9147 415.938 51.335 413.436 49.7959 410.905L50.2232 410.645C48.6904 408.124 47.198 405.575 45.747 402.998L45.3113 403.243C43.8605 400.667 42.451 398.062 41.0837 395.432L41.5274 395.201C40.1668 392.584 38.8481 389.939 37.5722 387.27L37.1211 387.486C35.8472 384.82 34.6159 382.13 33.428 379.415L33.886 379.214C32.7036 376.512 31.5643 373.785 30.469 371.035L30.0045 371.22C28.9108 368.474 27.8609 365.705 26.8557 362.913L27.3261 362.744C26.328 359.972 25.374 357.178 24.4651 354.363L23.9893 354.517C23.0817 351.706 22.219 348.874 21.402 346.022L21.8827 345.885C21.0701 343.048 20.3028 340.192 19.5816 337.316L19.0966 337.438C18.3792 334.577 17.7074 331.698 17.0819 328.801L17.5707 328.695C16.949 325.815 16.3734 322.918 15.8445 320.003L15.3525 320.093C14.8248 317.185 14.3436 314.26 13.9097 311.32L14.4044 311.247C13.975 308.337 13.592 305.411 13.2562 302.47L12.7594 302.527C12.4248 299.596 12.137 296.651 11.8968 293.692L12.3952 293.651C12.1565 290.712 11.965 287.758 11.8213 284.792L11.3219 284.816C11.1794 281.876 11.0838 278.922 11.036 275.957L11.5359 275.949C11.512 274.469 11.5 272.986 11.5 271.5C11.5 270.014 11.512 268.531 11.5359 267.051L11.0359 267.043C11.0838 264.078 11.1794 261.125 11.3218 258.184L11.8213 258.208C11.965 255.242 12.1565 252.288 12.3951 249.349L11.8968 249.308C12.137 246.349 12.4248 243.404 12.7594 240.473L13.2562 240.53C13.592 237.589 13.975 234.663 14.4044 231.753L13.9097 231.68C14.3436 228.74 14.8248 225.815 15.3525 222.907L15.8445 222.997C16.3734 220.082 16.949 217.185 17.5707 214.305L17.0819 214.199C17.7073 211.302 18.3792 208.423 19.0966 205.562L19.5816 205.684C20.3028 202.808 21.0701 199.952 21.8827 197.115L21.402 196.978C22.219 194.126 23.0817 191.294 23.9893 188.483L24.4651 188.637C25.374 185.822 26.328 183.028 27.3261 180.256L26.8557 180.087C27.8609 177.295 28.9108 174.526 30.0045 171.78L30.469 171.965C31.5643 169.215 32.7036 166.488 33.886 163.786L33.428 163.585C34.6159 160.87 35.8472 158.18 37.1211 155.514L37.5722 155.73C38.8481 153.061 40.1668 150.416 41.5274 147.799L41.0837 147.568C42.451 144.937 43.8605 142.333 45.3113 139.757L45.747 140.002C47.198 137.425 48.6904 134.876 50.2232 132.355L49.796 132.095C51.335 129.564 52.9147 127.062 54.5342 124.589L54.9525 124.863C56.5734 122.388 58.2342 119.943 59.9339 117.529L59.5251 117.241C61.2306 114.819 62.9753 112.427 64.7581 110.068L65.157 110.369C66.939 108.011 68.7592 105.684 70.6167 103.391L70.2281 103.076C72.0926 100.774 73.9945 98.5052 75.9329 96.2704L76.3106 96.5981C78.2477 94.3648 80.2213 92.1657 82.2304 90.0018L81.864 89.6616C83.8787 87.4916 85.9292 85.3569 88.0143 83.2585L88.369 83.6109C90.452 81.5146 92.5698 79.4546 94.7213 77.4318L94.3788 77.0676C96.536 75.0393 98.7272 73.0485 100.951 71.0961L101.281 71.4718C103.501 69.5226 105.755 67.6117 108.04 65.7401L107.723 65.3533C110.013 63.4778 112.335 61.6416 114.688 59.8459L114.991 60.2434C117.339 58.4513 119.718 56.6995 122.128 54.9891L121.838 54.5814C124.251 52.8683 126.694 51.1966 129.165 49.5673L129.441 49.9847C131.906 48.3594 134.401 46.7764 136.923 45.2366L136.663 44.8098C139.188 43.2683 141.742 41.77 144.322 40.316L144.568 40.7516C147.139 39.3026 149.737 37.8978 152.361 36.5379L152.131 36.094C154.757 34.7333 157.408 33.4176 160.085 32.1479L160.299 32.5997C162.967 31.3344 165.659 30.1148 168.374 28.942L168.176 28.483C170.889 27.3113 173.626 26.1862 176.386 25.1086L176.568 25.5743C179.315 24.5017 182.085 23.4762 184.876 22.4988L184.711 22.0269C187.501 21.0501 190.313 20.1213 193.145 19.2414L193.293 19.7189C196.109 18.8441 198.946 18.0178 201.802 17.241L201.671 16.7585C204.519 15.9837 207.387 15.258 210.274 14.5823L210.387 15.0692C213.258 14.3973 216.146 13.775 219.052 13.2032L218.955 12.7126C221.854 12.1421 224.77 11.6218 227.703 11.1525L227.782 11.6462C230.688 11.1813 233.609 10.7666 236.546 10.403L236.485 9.90674C239.413 9.54416 242.356 9.23227 245.314 8.97194L245.358 9.47002C248.295 9.21151 251.247 9.00395 254.212 8.84821L254.185 8.34889C257.125 8.19445 260.078 8.09086 263.044 8.03897L263.052 8.53889C264.532 8.513 266.014 8.5 267.5 8.5C268.986 8.5 270.468 8.513 271.948 8.53889L271.956 8.03897C274.922 8.09086 277.875 8.19445 280.815 8.34889L280.788 8.8482C283.753 9.00394 286.705 9.2115 289.642 9.47001L289.686 8.97193C292.643 9.23226 295.587 9.54415 298.515 9.90673L298.454 10.4029C301.391 10.7666 304.312 11.1813 307.218 11.6462L307.297 11.1525C310.229 11.6218 313.146 12.1421 316.045 12.7126L315.948 13.2032C318.854 13.775 321.742 14.3973 324.612 15.0691L324.726 14.5823C327.613 15.258 330.481 15.9837 333.329 16.7585L333.198 17.2409C336.054 18.0178 338.891 18.8441 341.707 19.7189L341.855 19.2414C344.687 20.1213 347.499 21.0501 350.289 22.0269L350.124 22.4988C352.915 23.4762 355.685 24.5016 358.432 25.5743L358.614 25.1086C361.374 26.1862 364.111 27.3113 366.824 28.483L366.626 28.942C369.341 30.1148 372.033 31.3344 374.701 32.5997L374.915 32.1479C377.592 33.4176 380.243 34.7333 382.869 36.094L382.639 36.5379C385.263 37.8978 387.861 39.3027 390.432 40.7516L390.678 40.316C393.258 41.77 395.812 43.2683 398.337 44.8098L398.077 45.2366C400.599 46.7764 403.094 48.3595 405.559 49.9848L405.835 49.5673C408.306 51.1966 410.749 52.8683 413.162 54.5814L412.873 54.9891C415.282 56.6995 417.661 58.4513 420.009 60.2434L420.312 59.846C422.665 61.6417 424.987 63.4778 427.277 65.3534L426.96 65.7402C429.245 67.6118 431.499 69.5226 433.719 71.4719L434.049 71.0961C436.273 73.0486 438.464 75.0394 440.621 77.0676L440.279 77.4319C442.43 79.4546 444.548 81.5147 446.631 83.611L446.986 83.2585C449.071 85.357 451.121 87.4917 453.136 89.6617L452.77 90.0019C454.779 92.1658 456.752 94.3649 458.689 96.5981L459.067 96.2705C461.006 98.5053 462.907 100.774 464.772 103.076L464.383 103.391C466.241 105.684 468.061 108.011 469.843 110.369L470.242 110.068C472.025 112.427 473.769 114.819 475.475 117.241L475.066 117.529C476.766 119.943 478.427 122.388 480.048 124.863L480.466 124.589C482.085 127.062 483.665 129.564 485.204 132.095L484.777 132.355C486.31 134.876 487.802 137.425 489.253 140.002L489.689 139.757C491.139 142.333 492.549 144.938 493.916 147.568L493.473 147.799C494.833 150.416 496.152 153.061 497.428 155.73L497.879 155.514C499.153 158.18 500.384 160.87 501.572 163.585L501.114 163.786C502.296 166.488 503.436 169.215 504.531 171.965L504.995 171.78C506.089 174.526 507.139 177.295 508.144 180.087L507.674 180.256C508.672 183.028 509.626 185.822 510.535 188.637L511.011 188.483C511.918 191.294 512.781 194.126 513.598 196.978L513.117 197.115C513.93 199.952 514.697 202.808 515.418 205.684L515.903 205.562C516.621 208.423 517.293 211.302 517.918 214.199L517.429 214.305C518.051 217.185 518.627 220.082 519.156 222.997L519.647 222.907C520.175 225.815 520.656 228.74 521.09 231.68L520.596 231.753C521.025 234.663 521.408 237.589 521.744 240.53L522.241 240.473C522.575 243.404 522.863 246.349 523.103 249.308L522.605 249.349C522.843 252.288 523.035 255.242 523.179 258.208L523.678 258.184Z" stroke="#D0D1FF" stroke-dasharray="9 9"/>
<path d="M511.666 258.194C511.814 261.132 511.913 264.083 511.963 267.047L511.463 267.055C511.488 268.534 511.5 270.015 511.5 271.5C511.5 272.985 511.488 274.466 511.463 275.945L511.963 275.953C511.913 278.917 511.814 281.868 511.666 284.806L511.167 284.781C511.018 287.744 510.819 290.694 510.572 293.629L511.07 293.671C510.821 296.628 510.523 299.572 510.176 302.499L509.679 302.44C509.331 305.378 508.934 308.301 508.488 311.206L508.983 311.282C508.533 314.216 508.035 317.132 507.488 320.031L506.997 319.938C506.448 322.849 505.851 325.741 505.206 328.615L505.694 328.725C505.045 331.617 504.348 334.49 503.604 337.343L503.12 337.217C502.374 340.079 501.58 342.92 500.739 345.741L501.218 345.884C500.371 348.727 499.476 351.548 498.535 354.347L498.061 354.188C497.118 356.992 496.129 359.773 495.094 362.531L495.562 362.707C494.522 365.48 493.435 368.229 492.304 370.954L491.842 370.762C490.707 373.494 489.527 376.2 488.303 378.881L488.758 379.089C487.526 381.785 486.25 384.454 484.931 387.096L484.483 386.873C483.162 389.517 481.798 392.135 480.39 394.723L480.829 394.962C479.415 397.563 477.957 400.135 476.457 402.678L476.026 402.424C474.524 404.971 472.979 407.488 471.393 409.974L471.814 410.243C470.222 412.74 468.587 415.205 466.912 417.639L466.5 417.356C464.825 419.789 463.108 422.191 461.353 424.559L461.754 424.857C459.992 427.235 458.189 429.579 456.347 431.889L455.956 431.577C454.114 433.888 452.233 436.164 450.314 438.405L450.693 438.73C448.768 440.978 446.804 443.19 444.803 445.365L444.435 445.027C442.436 447.201 440.4 449.337 438.327 451.436L438.683 451.788C436.604 453.893 434.489 455.961 432.339 457.989L431.995 457.625C429.847 459.652 427.664 461.639 425.446 463.586L425.776 463.961C423.553 465.913 421.295 467.825 419.005 469.695L418.689 469.307C416.402 471.174 414.082 472.999 411.73 474.782L412.032 475.181C409.675 476.968 407.286 478.712 404.866 480.412L404.579 480.003C402.164 481.7 399.718 483.353 397.243 484.961L397.515 485.38C395.036 486.991 392.527 488.557 389.989 490.077L389.732 489.648C387.201 491.164 384.641 492.634 382.053 494.058L382.295 494.496C379.705 495.921 377.087 497.299 374.443 498.63L374.218 498.183C371.584 499.508 368.924 500.785 366.238 502.014L366.447 502.469C363.76 503.698 361.048 504.879 358.312 506.01L358.121 505.548C355.396 506.674 352.647 507.751 349.875 508.778L350.049 509.247C347.279 510.272 344.487 511.248 341.672 512.172L341.516 511.697C338.719 512.616 335.899 513.484 333.058 514.3L333.197 514.781C330.36 515.596 327.502 516.36 324.625 517.071L324.505 516.586C321.645 517.293 318.765 517.948 315.866 518.55L315.968 519.039C313.081 519.639 310.175 520.186 307.253 520.679L307.169 520.186C304.269 520.676 301.352 521.113 298.418 521.496L298.483 521.992C295.559 522.374 292.618 522.702 289.663 522.977L289.616 522.479C286.685 522.751 283.739 522.969 280.779 523.133L280.807 523.632C277.869 523.795 274.917 523.904 271.953 523.959L271.943 523.459C270.465 523.486 268.984 523.5 267.5 523.5C266.016 523.5 264.535 523.486 263.057 523.459L263.047 523.959C260.083 523.904 257.131 523.795 254.193 523.632L254.221 523.133C251.261 522.969 248.315 522.751 245.383 522.479L245.337 522.977C242.382 522.702 239.441 522.374 236.517 521.992L236.582 521.496C233.648 521.113 230.731 520.676 227.831 520.186L227.747 520.679C224.825 520.186 221.919 519.639 219.032 519.039L219.134 518.55C216.235 517.948 213.355 517.293 210.495 516.586L210.375 517.071C207.498 516.36 204.64 515.596 201.803 514.781L201.942 514.3C199.101 513.484 196.281 512.616 193.484 511.697L193.328 512.172C190.513 511.248 187.72 510.272 184.951 509.247L185.125 508.778C182.353 507.751 179.604 506.674 176.879 505.548L176.688 506.01C173.952 504.879 171.24 503.698 168.554 502.469L168.762 502.014C166.076 500.785 163.416 499.508 160.782 498.183L160.557 498.63C157.913 497.299 155.295 495.921 152.706 494.496L152.947 494.058C150.359 492.635 147.799 491.164 145.268 489.648L145.011 490.077C142.473 488.557 139.964 486.991 137.485 485.38L137.757 484.961C135.282 483.353 132.836 481.7 130.422 480.003L130.134 480.412C127.714 478.712 125.325 476.968 122.968 475.181L123.27 474.782C120.918 473 118.598 471.174 116.311 469.307L115.995 469.695C113.705 467.825 111.447 465.913 109.224 463.961L109.554 463.586C107.336 461.639 105.153 459.652 103.005 457.625L102.662 457.989C100.511 455.961 98.3959 453.893 96.317 451.788L96.6728 451.436C94.6003 449.338 92.564 447.201 90.5647 445.027L90.1967 445.366C88.1958 443.19 86.2321 440.978 84.3066 438.73L84.6863 438.405C82.7671 436.164 80.8858 433.888 79.0437 431.577L78.6527 431.889C76.8111 429.579 75.0084 427.235 73.2458 424.857L73.6474 424.559C71.8916 422.191 70.1755 419.789 68.5002 417.356L68.0884 417.639C66.4131 415.206 64.7784 412.74 63.1856 410.243L63.6071 409.974C62.0208 407.488 60.476 404.971 58.9737 402.424L58.543 402.678C57.0431 400.135 55.5854 397.563 54.1711 394.962L54.6104 394.723C53.2025 392.135 51.8376 389.517 50.5167 386.873L50.0694 387.096C48.7495 384.454 47.4735 381.785 46.2423 379.089L46.6971 378.881C45.4727 376.2 44.2928 373.494 43.1582 370.762L42.6964 370.954C41.5647 368.229 40.4781 365.48 39.4376 362.707L39.9057 362.531C38.8708 359.773 37.8816 356.992 36.939 354.188L36.465 354.347C35.524 351.548 34.6293 348.727 33.7819 345.884L34.261 345.741C33.4203 342.92 32.6263 340.079 31.8798 337.217L31.396 337.343C30.6518 334.49 29.9547 331.617 29.3058 328.724L29.7937 328.615C29.149 325.741 28.5518 322.849 28.0032 319.938L27.5118 320.031C26.9653 317.132 26.4668 314.215 26.0173 311.282L26.5115 311.206C26.0662 308.301 25.669 305.378 25.3208 302.44L24.8242 302.499C24.4772 299.571 24.1787 296.628 23.9295 293.671L24.4277 293.629C24.1805 290.693 23.982 287.744 23.833 284.781L23.3337 284.806C23.186 281.868 23.0869 278.917 23.0373 275.953L23.5372 275.945C23.5124 274.466 23.5 272.985 23.5 271.5C23.5 270.015 23.5124 268.534 23.5372 267.055L23.0373 267.047C23.0869 264.083 23.186 261.132 23.3337 258.194L23.833 258.219C23.982 255.256 24.1805 252.307 24.4278 249.371L23.9295 249.329C24.1787 246.372 24.4772 243.428 24.8242 240.501L25.3208 240.56C25.669 237.622 26.0662 234.699 26.5115 231.794L26.0173 231.718C26.4669 228.785 26.9653 225.868 27.5118 222.969L28.0032 223.062C28.5518 220.151 29.149 217.259 29.7937 214.385L29.3058 214.275C29.9547 211.383 30.6518 208.51 31.396 205.657L31.8798 205.783C32.6263 202.921 33.4203 200.08 34.261 197.259L33.7818 197.116C34.6292 194.273 35.524 191.452 36.465 188.653L36.9389 188.812C37.8816 186.008 38.8708 183.227 39.9057 180.469L39.4376 180.293C40.4781 177.52 41.5647 174.771 42.6964 172.046L43.1582 172.238C44.2927 169.506 45.4727 166.8 46.6971 164.119L46.2423 163.911C47.4735 161.215 48.7495 158.546 50.0694 155.904L50.5167 156.127C51.8376 153.483 53.2025 150.865 54.6103 148.277L54.1711 148.038C55.5854 145.437 57.0431 142.865 58.543 140.322L58.9736 140.576C60.4759 138.029 62.0207 135.512 63.607 133.026L63.1855 132.757C64.7784 130.26 66.413 127.795 68.0883 125.361L68.5002 125.644C70.1755 123.211 71.8915 120.809 73.6474 118.441L73.2457 118.143C75.0084 115.765 76.811 113.421 78.6526 111.111L79.0436 111.423C80.8858 109.112 82.767 106.836 84.6862 104.595L84.3065 104.27C86.2321 102.022 88.1958 99.81 90.1967 97.6345L90.5647 97.973C92.5639 95.7994 94.6003 93.6626 96.6727 91.5636L96.3169 91.2123C98.3959 89.1068 100.511 87.0394 102.661 85.0111L103.005 85.3748C105.153 83.3485 107.336 81.3613 109.554 79.4143L109.224 79.0386C111.447 77.0868 113.705 75.1754 115.995 73.3054L116.311 73.6927C118.598 71.8259 120.918 70.0006 123.27 68.2177L122.968 67.8192C125.325 66.0324 127.714 64.2882 130.134 62.5877L130.421 62.9968C132.836 61.3003 135.282 59.6474 137.757 58.0391L137.485 57.6198C139.964 56.0091 142.473 54.4431 145.011 52.9229L145.268 53.3518C147.799 51.8358 150.359 50.3655 152.947 48.9419L152.705 48.5038C155.295 47.079 157.913 45.7008 160.557 44.3705L160.782 44.8171C163.416 43.4922 166.076 42.2147 168.762 40.9858L168.554 40.5312C171.24 39.302 173.952 38.1213 176.688 36.9903L176.879 37.4524C179.604 36.326 182.353 35.249 185.125 34.2223L184.951 33.7534C187.721 32.7277 190.513 31.7522 193.328 30.8279L193.484 31.3029C196.281 30.3842 199.101 29.5161 201.942 28.6997L201.803 28.2192C204.64 27.404 207.498 26.6402 210.375 25.929L210.495 26.4144C213.355 25.7073 216.235 25.0523 219.134 24.4503L219.032 23.9607C221.919 23.3611 224.825 22.8141 227.747 22.3206L227.831 22.8136C230.731 22.3239 233.648 21.887 236.582 21.5039L236.517 21.0081C239.441 20.6262 242.382 20.2976 245.337 20.0233L245.384 20.5212C248.315 20.2492 251.261 20.0308 254.221 19.8668L254.193 19.3676C257.131 19.2049 260.083 19.0957 263.047 19.041L263.057 19.5409C264.535 19.5137 266.016 19.5 267.5 19.5C268.984 19.5 270.465 19.5137 271.943 19.5409L271.953 19.041C274.917 19.0957 277.869 19.2049 280.807 19.3676L280.779 19.8668C283.739 20.0308 286.685 20.2492 289.616 20.5212L289.663 20.0233C292.618 20.2976 295.559 20.6262 298.483 21.0081L298.418 21.5039C301.352 21.887 304.269 22.3239 307.169 22.8136L307.253 22.3206C310.175 22.8141 313.081 23.3612 315.968 23.9607L315.866 24.4503C318.765 25.0523 321.645 25.7073 324.505 26.4144L324.625 25.929C327.502 26.6402 330.36 27.404 333.197 28.2192L333.058 28.6998C335.899 29.5161 338.719 30.3842 341.516 31.3029L341.672 30.8279C344.487 31.7522 347.28 32.7277 350.049 33.7534L349.875 34.2223C352.647 35.249 355.396 36.326 358.121 37.4524L358.312 36.9903C361.048 38.1213 363.76 39.302 366.446 40.5311L366.238 40.9858C368.924 42.2147 371.584 43.4921 374.218 44.8171L374.443 44.3705C377.087 45.7008 379.705 47.079 382.294 48.5038L382.053 48.9419C384.641 50.3655 387.201 51.8358 389.732 53.3518L389.989 52.9228C392.527 54.443 395.036 56.009 397.515 57.6198L397.243 58.039C399.718 59.6473 402.164 61.3003 404.578 62.9968L404.866 62.5877C407.286 64.2882 409.675 66.0324 412.032 67.8191L411.73 68.2176C414.082 70.0005 416.402 71.8259 418.689 73.6927L419.005 73.3053C421.295 75.1753 423.553 77.0868 425.776 79.0386L425.446 79.4143C427.664 81.3612 429.847 83.3484 431.995 85.3747L432.338 85.011C434.489 87.0393 436.604 89.1067 438.683 91.2122L438.327 91.5635C440.4 93.6625 442.436 95.7993 444.435 97.973L444.803 97.6345C446.804 99.8099 448.768 102.022 450.693 104.27L450.314 104.595C452.233 106.836 454.114 109.112 455.956 111.423L456.347 111.111C458.189 113.421 459.992 115.765 461.754 118.143L461.353 118.441C463.108 120.809 464.824 123.211 466.5 125.644L466.912 125.361C468.587 127.794 470.222 130.26 471.814 132.757L471.393 133.026C472.979 135.512 474.524 138.029 476.026 140.576L476.457 140.322C477.957 142.865 479.415 145.437 480.829 148.038L480.39 148.277C481.798 150.865 483.162 153.483 484.483 156.127L484.931 155.904C486.25 158.546 487.526 161.215 488.758 163.911L488.303 164.119C489.527 166.8 490.707 169.506 491.842 172.238L492.304 172.046C493.435 174.771 494.522 177.52 495.562 180.293L495.094 180.469C496.129 183.227 497.118 186.008 498.061 188.812L498.535 188.653C499.476 191.452 500.371 194.273 501.218 197.116L500.739 197.259C501.58 200.08 502.374 202.921 503.12 205.783L503.604 205.657C504.348 208.51 505.045 211.383 505.694 214.276L505.206 214.385C505.851 217.259 506.448 220.151 506.997 223.062L507.488 222.969C508.035 225.868 508.533 228.785 508.983 231.718L508.488 231.794C508.934 234.699 509.331 237.622 509.679 240.56L510.176 240.501C510.523 243.429 510.821 246.372 511.07 249.329L510.572 249.371C510.819 252.307 511.018 255.256 511.167 258.219L511.666 258.194Z" stroke="#D0D1FF" stroke-dasharray="9 9"/>
<path d="M534.688 258.27C534.826 261.192 534.919 264.127 534.965 267.073L534.465 267.081C534.488 268.551 534.5 270.024 534.5 271.5C534.5 272.976 534.488 274.449 534.465 275.92L534.965 275.928C534.919 278.874 534.826 281.808 534.688 284.73L534.188 284.707C534.049 287.653 533.864 290.586 533.632 293.507L534.131 293.546C533.898 296.485 533.619 299.41 533.295 302.321L532.798 302.266C532.473 305.19 532.101 308.1 531.685 310.995L532.18 311.066C531.76 313.987 531.294 316.893 530.783 319.782L530.29 319.695C529.778 322.591 529.221 325.47 528.619 328.332L529.108 328.435C528.502 331.32 527.851 334.187 527.155 337.037L526.669 336.918C525.971 339.777 525.228 342.617 524.441 345.44L524.923 345.574C524.132 348.41 523.297 351.227 522.419 354.025L521.942 353.875C521.061 356.681 520.136 359.467 519.168 362.232L519.64 362.397C518.667 365.178 517.65 367.938 516.591 370.676L516.125 370.496C515.065 373.236 513.962 375.954 512.818 378.65L513.278 378.846C512.127 381.556 510.934 384.244 509.699 386.908L509.246 386.698C508.01 389.365 506.733 392.008 505.415 394.627L505.861 394.852C504.538 397.48 503.174 400.084 501.77 402.662L501.331 402.423C499.925 405.003 498.48 407.557 496.995 410.085L497.426 410.339C495.935 412.877 494.404 415.388 492.835 417.872L492.412 417.604C490.844 420.087 489.236 422.542 487.591 424.968L488.005 425.249C486.353 427.684 484.664 430.091 482.937 432.467L482.532 432.173C480.806 434.55 479.042 436.896 477.242 439.212L477.637 439.519C475.832 441.842 473.99 444.133 472.113 446.394L471.728 446.074C469.852 448.333 467.94 450.559 465.994 452.754L466.368 453.086C464.416 455.286 462.429 457.454 460.409 459.589L460.045 459.245C458.027 461.377 455.975 463.475 453.89 465.539L454.242 465.894C452.152 467.963 450.029 469.997 447.873 471.996L447.533 471.629C445.381 473.625 443.197 475.585 440.981 477.509L441.309 477.887C439.089 479.814 436.837 481.705 434.555 483.56L434.24 483.172C431.963 485.022 429.655 486.836 427.317 488.611L427.62 489.009C425.279 490.787 422.909 492.527 420.51 494.228L420.221 493.82C417.828 495.516 415.406 497.174 412.957 498.792L413.232 499.21C410.78 500.83 408.3 502.41 405.792 503.95L405.531 503.524C403.032 505.059 400.507 506.553 397.956 508.006L398.203 508.44C395.65 509.894 393.072 511.306 390.468 512.676L390.235 512.234C387.64 513.6 385.02 514.924 382.375 516.205L382.593 516.655C379.951 517.935 377.284 519.173 374.595 520.367L374.392 519.91C371.714 521.099 369.012 522.244 366.289 523.346L366.477 523.809C363.754 524.911 361.008 525.968 358.242 526.98L358.07 526.511C355.32 527.517 352.548 528.479 349.756 529.396L349.912 529.871C347.125 530.786 344.317 531.656 341.49 532.481L341.35 532C338.537 532.821 335.704 533.595 332.853 534.323L332.977 534.808C330.136 535.533 327.276 536.213 324.399 536.845L324.292 536.357C321.434 536.985 318.559 537.567 315.668 538.102L315.759 538.593C312.872 539.127 309.97 539.614 307.052 540.053L306.977 539.558C304.086 539.993 301.179 540.381 298.258 540.721L298.315 541.218C295.405 541.557 292.481 541.848 289.543 542.091L289.502 541.593C286.582 541.835 283.649 542.029 280.704 542.174L280.729 542.674C277.807 542.818 274.873 542.915 271.927 542.964L271.919 542.464C270.449 542.488 268.976 542.5 267.5 542.5C266.024 542.5 264.551 542.488 263.081 542.464L263.073 542.964C260.127 542.915 257.193 542.818 254.271 542.674L254.296 542.174C251.35 542.029 248.418 541.835 245.498 541.593L245.457 542.091C242.519 541.848 239.595 541.557 236.684 541.218L236.742 540.721C233.821 540.381 230.914 539.993 228.022 539.558L227.948 540.053C225.03 539.614 222.128 539.127 219.241 538.593L219.332 538.102C216.441 537.567 213.566 536.985 210.708 536.357L210.601 536.845C207.724 536.213 204.864 535.533 202.023 534.808L202.147 534.323C199.296 533.595 196.463 532.821 193.65 532L193.51 532.48C190.683 531.656 187.875 530.786 185.088 529.871L185.244 529.396C182.452 528.479 179.68 527.517 176.93 526.511L176.758 526.98C173.992 525.968 171.246 524.911 168.523 523.809L168.711 523.346C165.988 522.244 163.286 521.099 160.608 519.91L160.405 520.367C157.716 519.173 155.049 517.935 152.407 516.655L152.625 516.205C149.98 514.924 147.36 513.6 144.765 512.234L144.532 512.676C141.928 511.306 139.35 509.894 136.797 508.44L137.044 508.006C134.493 506.553 131.968 505.059 129.469 503.524L129.208 503.95C126.7 502.41 124.22 500.83 121.768 499.21L122.043 498.792C119.594 497.174 117.172 495.516 114.779 493.82L114.49 494.228C112.091 492.527 109.721 490.787 107.38 489.009L107.683 488.611C105.345 486.836 103.037 485.022 100.76 483.172L100.445 483.56C98.1627 481.705 95.9114 479.814 93.6915 477.887L94.0193 477.509C91.8035 475.585 89.6191 473.625 87.4669 471.629L87.127 471.996C84.9714 469.997 82.8482 467.963 80.7582 465.894L81.1099 465.539C79.0247 463.475 76.9726 461.377 74.9546 459.245L74.5915 459.589C72.5706 457.454 70.5838 455.286 68.6319 453.086L69.0059 452.754C67.0595 450.56 65.1479 448.333 63.272 446.074L62.8874 446.394C61.01 444.133 59.1684 441.842 57.3632 439.519L57.758 439.212C55.9579 436.896 54.1942 434.55 52.4678 432.173L52.0633 432.467C50.3364 430.091 48.6468 427.684 46.9954 425.249L47.4092 424.968C45.7638 422.542 44.1563 420.087 42.5876 417.604L42.1649 417.872C40.5955 415.388 39.0649 412.877 37.574 410.339L38.0051 410.085C36.5201 407.557 35.0745 405.003 33.6692 402.423L33.2301 402.662C31.8259 400.084 30.4619 397.48 29.1388 394.852L29.5854 394.627C28.2673 392.008 26.9899 389.365 25.7541 386.698L25.3005 386.908C24.066 384.244 22.8729 381.556 21.722 378.846L22.1823 378.65C21.0378 375.954 19.9352 373.236 18.8753 370.496L18.4089 370.676C17.3498 367.938 16.3331 365.178 15.3599 362.397L15.8319 362.232C14.8641 359.467 13.9392 356.681 13.0582 353.875L12.5812 354.025C11.7028 351.227 10.8678 348.41 10.0772 345.574L10.5588 345.439C9.77205 342.617 9.02922 339.777 8.3311 336.918L7.84538 337.036C7.14947 334.187 6.49791 331.319 5.89148 328.435L6.38078 328.332C5.77894 325.47 5.22163 322.59 4.70962 319.695L4.21726 319.782C3.70624 316.893 3.24027 313.987 2.82012 311.066L3.31502 310.995C2.89852 308.1 2.52711 305.19 2.20156 302.265L1.70463 302.321C1.38053 299.41 1.1018 296.484 0.869156 293.546L1.3676 293.507C1.13636 290.586 0.950751 287.652 0.811482 284.707L0.312039 284.73C0.173883 281.808 0.0812511 278.873 0.0348471 275.927L0.534785 275.919C0.511624 274.449 0.5 272.976 0.5 271.5C0.5 270.024 0.511626 268.551 0.534789 267.08L0.0348511 267.072C0.081258 264.126 0.173893 261.192 0.312052 258.27L0.811494 258.293C0.950766 255.347 1.13638 252.414 1.36761 249.493L0.869175 249.454C1.10182 246.515 1.38056 243.59 1.70466 240.679L2.20159 240.734C2.52714 237.81 2.89855 234.9 3.31505 232.005L2.82015 231.933C3.2403 229.013 3.70627 226.107 4.2173 223.218L4.70966 223.305C5.22166 220.409 5.77898 217.53 6.38083 214.668L5.89153 214.565C6.49795 211.68 7.14951 208.813 7.84542 205.963L8.33115 206.082C9.02927 203.223 9.7721 200.383 10.5588 197.56L10.0772 197.426C10.8679 194.59 11.7028 191.773 12.5813 188.975L13.0583 189.125C13.9393 186.319 14.8641 183.533 15.8319 180.768L15.36 180.603C16.3332 177.822 17.3498 175.062 18.409 172.324L18.8753 172.504C19.9352 169.764 21.0378 167.046 22.1823 164.35L21.7221 164.154C22.8729 161.444 24.066 158.756 25.3005 156.092L25.7542 156.302C26.9899 153.635 28.2673 150.992 29.5854 148.373L29.1388 148.148C30.4619 145.52 31.8259 142.916 33.2301 140.338L33.6692 140.577C35.0745 137.997 36.5201 135.443 38.0051 132.915L37.574 132.661C39.0649 130.123 40.5955 127.612 42.1649 125.128L42.5876 125.396C44.1563 122.913 45.7638 120.458 47.4092 118.032L46.9954 117.751C48.6468 115.316 50.3364 112.909 52.0632 110.533L52.4678 110.827C54.1941 108.45 55.9579 106.104 57.758 103.788L57.3632 103.481C59.1683 101.158 61.01 98.8666 62.8874 96.6064L63.272 96.9259C65.1479 94.6674 67.0595 92.4405 69.0059 90.2461L68.6318 89.9143C70.5837 87.7136 72.5706 85.5456 74.5915 83.411L74.9546 83.7547C76.9726 81.6232 79.0247 79.525 81.1099 77.4612L80.7582 77.1058C82.8482 75.0373 84.9714 73.0032 87.1269 71.0044L87.4669 71.371C89.619 69.3754 91.8035 67.4151 94.0193 65.491L93.6915 65.1135C95.9113 63.1859 98.1626 61.2946 100.445 59.4404L100.76 59.8284C103.037 57.9778 105.345 56.1643 107.683 54.3888L107.38 53.9906C109.721 52.2129 112.091 50.4732 114.49 48.7724L114.779 49.1803C117.172 47.4836 119.594 45.8258 122.043 44.2076L121.768 43.7904C124.22 42.1702 126.7 40.5898 129.208 39.0499L129.469 39.476C131.968 37.9414 134.493 36.4473 137.044 34.9944L136.797 34.5599C139.35 33.1062 141.928 31.6938 144.532 30.3236L144.765 30.766C147.36 29.4001 149.98 28.0761 152.625 26.7949L152.407 26.345C155.049 25.0647 157.716 23.8272 160.405 22.6333L160.608 23.0902C163.286 21.9013 165.988 20.7556 168.711 19.6542L168.523 19.1907C171.246 18.0893 173.992 17.032 176.758 16.0197L176.93 16.4893C179.68 15.4826 182.452 14.5206 185.244 13.6039L185.088 13.1289C187.876 12.2136 190.683 11.3435 193.51 10.5195L193.65 10.9995C196.463 10.1793 199.296 9.4048 202.147 8.67683L202.023 8.19237C204.864 7.46676 207.724 6.78729 210.601 6.15479L210.708 6.64312C213.566 6.01477 216.441 5.43286 219.332 4.89821L219.241 4.40655C222.128 3.8728 225.03 3.38607 227.948 2.94716L228.023 3.4416C230.914 3.00662 233.821 2.6187 236.742 2.27863L236.684 1.78199C239.595 1.4432 242.519 1.15181 245.457 0.908601L245.498 1.4069C248.418 1.1652 251.351 0.971173 254.296 0.825589L254.271 0.326198C257.193 0.181782 260.127 0.0849434 263.073 0.036431L263.081 0.536363C264.551 0.512152 266.024 0.5 267.5 0.5C268.976 0.5 270.449 0.512153 271.919 0.536366L271.927 0.0364342C274.873 0.0849488 277.807 0.181789 280.729 0.326207L280.704 0.825598C283.65 0.971185 286.582 1.16521 289.502 1.40691L289.543 0.908616C292.481 1.15183 295.405 1.44321 298.316 1.782L298.258 2.27865C301.179 2.61872 304.086 3.00664 306.978 3.44162L307.052 2.94718C309.97 3.38609 312.872 3.87282 315.759 4.40657L315.668 4.89823C318.559 5.43288 321.434 6.01479 324.292 6.64315L324.399 6.15481C327.276 6.78731 330.136 7.46678 332.977 8.19239L332.853 8.67685C335.704 9.40483 338.537 10.1793 341.35 10.9995L341.49 10.5195C344.317 11.3436 347.125 12.2136 349.912 13.1289L349.756 13.6039C352.548 14.5206 355.32 15.4827 358.07 16.4893L358.242 16.0197C361.008 17.032 363.754 18.0893 366.477 19.1907L366.289 19.6542C369.012 20.7556 371.714 21.9013 374.392 23.0903L374.595 22.6333C377.284 23.8272 379.951 25.0647 382.593 26.345L382.375 26.795C385.02 28.0761 387.64 29.4001 390.235 30.766L390.468 30.3236C393.072 31.6938 395.65 33.1062 398.203 34.5599L397.956 34.9944C400.507 36.4473 403.032 37.9414 405.531 39.476L405.792 39.0499C408.3 40.5898 410.78 42.1702 413.232 43.7904L412.957 44.2076C415.406 45.8258 417.828 47.4836 420.221 49.1802L420.51 48.7724C422.909 50.4732 425.279 52.2129 427.62 53.9906L427.317 54.3888C429.655 56.1643 431.963 57.9778 434.24 59.8284L434.555 59.4404C436.837 61.2945 439.089 63.1859 441.308 65.1135L440.981 65.491C443.197 67.4151 445.381 69.3754 447.533 71.371L447.873 71.0044C450.029 73.0032 452.152 75.0373 454.242 77.1058L453.89 77.4612C455.975 79.525 458.027 81.6231 460.045 83.7547L460.409 83.411C462.429 85.5456 464.416 87.7136 466.368 89.9143L465.994 90.246C467.94 92.4405 469.852 94.6674 471.728 96.9259L472.113 96.6064C473.99 98.8666 475.832 101.158 477.637 103.481L477.242 103.788C479.042 106.104 480.806 108.45 482.532 110.827L482.937 110.533C484.664 112.909 486.353 115.316 488.005 117.751L487.591 118.032C489.236 120.458 490.844 122.913 492.412 125.396L492.835 125.128C494.404 127.612 495.935 130.123 497.426 132.661L496.995 132.915C498.48 135.443 499.926 137.997 501.331 140.577L501.77 140.338C503.174 142.916 504.538 145.52 505.861 148.148L505.415 148.373C506.733 150.992 508.01 153.635 509.246 156.302L509.7 156.092C510.934 158.756 512.127 161.444 513.278 164.154L512.818 164.35C513.962 167.046 515.065 169.764 516.125 172.504L516.591 172.324C517.65 175.062 518.667 177.822 519.64 180.603L519.168 180.768C520.136 183.533 521.061 186.319 521.942 189.125L522.419 188.975C523.297 191.773 524.132 194.59 524.923 197.426L524.441 197.561C525.228 200.383 525.971 203.223 526.669 206.082L527.155 205.964C527.851 208.813 528.502 211.681 529.109 214.565L528.619 214.668C529.221 217.53 529.778 220.41 530.29 223.305L530.783 223.218C531.294 226.107 531.76 229.013 532.18 231.934L531.685 232.005C532.102 234.9 532.473 237.81 532.798 240.735L533.295 240.679C533.619 243.59 533.898 246.516 534.131 249.454L533.632 249.493C533.864 252.414 534.049 255.348 534.189 258.293L534.688 258.27Z" stroke="#D0D1FF" stroke-dasharray="9 9"/>
</svg>
