<svg width="48" height="49" viewBox="0 0 48 49" fill="none" xmlns="http://www.w3.org/2000/svg">
<path opacity="0.5" d="M19.79 29.9067C19.8382 29.3928 20.2695 29 20.7856 29H32.8562C33.3652 29 33.793 29.3824 33.8499 29.8882L35.7217 46.5265C35.8225 47.4221 34.7802 47.9835 34.0878 47.4065L27 41.5L19.8621 47.4483C19.1766 48.0195 18.143 47.4751 18.2262 46.5867L19.79 29.9067Z" fill="#666BFF"/>
<path d="M23.9998 29.3334C31.3636 29.3334 37.3332 23.3639 37.3332 16.0001C37.3332 8.63629 31.3636 2.66675 23.9998 2.66675C16.636 2.66675 10.6665 8.63629 10.6665 16.0001C10.6665 23.3639 16.636 29.3334 23.9998 29.3334Z" stroke="#2B2D6B" stroke-width="2" stroke-linecap="round" stroke-linejoin="round"/>
<path d="M17.4922 28.1953L15.5562 44.1777L23.5562 38.9146L31.5562 44.1777L29.6202 28.1777" stroke="#2B2D6B" stroke-width="2" stroke-linecap="round" stroke-linejoin="round"/>
<path d="M30.6668 10.6667L20.4104 20.9334L17.3335 17.8565" stroke="#2B2D6B" stroke-width="2" stroke-linecap="round" stroke-linejoin="round"/>
</svg>
