<svg width="351" height="316" viewBox="0 0 351 316" fill="none" xmlns="http://www.w3.org/2000/svg">
<path opacity="0.2" d="M304.294 190.768L218.287 155.848V187.365L304.294 222.285V190.768Z" fill="url(#paint0_linear_341_11033)"/>
<path d="M235.759 173.512C235.759 176.099 233.581 177.324 230.871 176.235C228.16 175.146 225.982 172.151 225.982 169.564C225.982 166.977 228.16 165.752 230.871 166.841C233.581 167.93 235.759 170.925 235.759 173.512Z" fill="#F3AAFF"/>
<path opacity="0.15" d="M240.309 172.389L266.155 182.906V186.684L240.26 176.167L240.309 172.389Z" fill="white"/>
<path opacity="0.15" d="M240.309 179.979L295.388 202.341V206.187L240.309 183.825V179.979Z" fill="white"/>
<path opacity="0.2" d="M129.568 154.35L43.5605 119.463V150.981L129.568 185.901V154.35Z" fill="url(#paint1_linear_341_11033)"/>
<path d="M61.0333 137.094C61.0333 139.68 58.8552 140.906 56.1448 139.817C53.4344 138.727 51.2563 135.732 51.2563 133.146C51.2563 130.559 53.4344 129.334 56.1448 130.423C58.8552 131.512 61.0333 134.507 61.0333 137.094Z" fill="#F3AAFF"/>
<path opacity="0.15" d="M65.4375 136.141L81.0225 142.471V146.317L65.4375 139.987V136.141Z" fill="white"/>
<path opacity="0.15" d="M65.583 143.731L120.663 166.092V169.939L65.583 147.577V143.731Z" fill="white"/>
<path opacity="0.3" d="M184.987 189.203L347.952 255.368L348 315.101L199.411 254.79L185.036 258.091L184.987 189.203Z" fill="url(#paint2_linear_341_11033)"/>
<path d="M218.093 222.66C218.093 227.595 213.979 229.876 208.849 227.8C203.718 225.723 199.604 220.039 199.604 215.138C199.604 210.203 203.718 207.923 208.849 209.999C213.931 212.075 218.093 217.759 218.093 222.66Z" fill="#F3AAFF"/>
<path opacity="0.15" d="M226.902 220.754L262.621 235.253V240.495L226.902 225.995V220.754Z" fill="white"/>
<path opacity="0.15" d="M226.902 231.271L333.577 274.564V279.806L226.902 236.512V231.271Z" fill="white"/>
<path opacity="0.15" d="M226.902 241.788L310.296 275.654V280.895L226.902 247.03V241.788Z" fill="white"/>
<path opacity="0.3" d="M162.965 206.357L0 140.225L0.0484006 199.958L148.638 260.269L163.013 275.245L162.965 206.357Z" fill="url(#paint3_linear_341_11033)"/>
<path d="M129.859 212.926C129.859 217.861 134.021 223.511 139.103 225.587C144.234 227.663 148.348 225.349 148.348 220.414C148.348 215.478 144.185 209.828 139.103 207.752C134.021 205.71 129.859 208.025 129.859 212.926Z" fill="#F3AAFF"/>
<path opacity="0.15" d="M121.05 203.906L85.3301 189.407V194.648L121.05 209.147V203.906Z" fill="white"/>
<path opacity="0.15" d="M121.098 214.389L14.4233 171.096V176.337L121.05 219.631L121.098 214.389Z" fill="white"/>
<path opacity="0.15" d="M121.098 224.906L37.7041 191.041V196.282L121.098 230.148V224.906Z" fill="white"/>
<path opacity="0.2" d="M67.7685 81.5129C70.6726 82.6701 72.9958 85.5291 72.9958 87.9116V98.2925L82.7727 102.241C85.6767 103.398 88 106.257 88 108.605C88 110.954 85.6767 111.907 82.7727 110.75L72.9958 106.767V117.148C72.9958 119.497 70.6726 120.45 67.7685 119.293C64.8645 118.135 62.5413 115.276 62.5413 112.928V102.547L52.7644 98.5988C49.8603 97.4416 47.5371 94.5826 47.5371 92.2341C47.5371 89.8857 49.8603 88.9327 52.7644 90.0899L62.5413 94.038V83.6571C62.4929 81.2746 64.8645 80.3216 67.7685 81.5129Z" fill="url(#paint4_linear_341_11033)"/>
<path opacity="0.2" d="M183.337 100L196.793 118.584C198.632 121.136 198.342 123.689 196.115 124.302C193.889 124.914 190.598 123.315 188.758 120.762L188.613 120.524V141.149C188.613 143.498 186.29 144.451 183.386 143.294C180.482 142.102 178.159 139.277 178.159 136.929V116.303L178.013 116.405C176.174 117.46 172.835 116.371 170.656 113.955C168.43 111.538 168.14 108.747 169.979 107.692L183.337 100Z" fill="url(#paint5_linear_341_11033)"/>
<path d="M316.509 285.888L315.245 274.659L349.736 288.704L351 299.933L316.509 285.888Z" fill="#F3AAFF"/>
<path opacity="0.2" d="M112 20L262.276 68.5298L262.352 143.334L112.076 94.8044L112 20Z" fill="url(#paint6_linear_341_11033)"/>
<path opacity="0.15" d="M112 20L187.214 89.1349L262.352 68.4875L112 20Z" fill="url(#paint7_linear_341_11033)"/>
<path d="M200.153 90.7429C200.153 96.0317 194.478 98.4433 187.365 96.1586C180.328 93.8738 174.577 87.7389 174.577 82.4924C174.577 77.2036 180.252 74.7919 187.365 77.0767C194.402 79.3615 200.153 85.4964 200.153 90.7429Z" fill="#F3AAFF"/>
<path opacity="0.2" d="M272.491 146C232.463 117.187 261.444 106.821 272.491 123.66C283.539 113.929 312.52 143.038 272.491 146Z" fill="url(#paint8_linear_341_11033)"/>
<defs>
<linearGradient id="paint0_linear_341_11033" x1="270.984" y1="177.251" x2="260.003" y2="204.306" gradientUnits="userSpaceOnUse">
<stop stop-color="white"/>
<stop offset="1" stop-color="white" stop-opacity="0"/>
</linearGradient>
<linearGradient id="paint1_linear_341_11033" x1="96.2579" y1="140.838" x2="85.2771" y2="167.892" gradientUnits="userSpaceOnUse">
<stop stop-color="white"/>
<stop offset="1" stop-color="white" stop-opacity="0"/>
</linearGradient>
<linearGradient id="paint2_linear_341_11033" x1="254.985" y1="191.147" x2="265.484" y2="312.243" gradientUnits="userSpaceOnUse">
<stop stop-color="white"/>
<stop offset="1" stop-color="white" stop-opacity="0"/>
</linearGradient>
<linearGradient id="paint3_linear_341_11033" x1="127.429" y1="182.437" x2="66.8205" y2="249.92" gradientUnits="userSpaceOnUse">
<stop stop-color="white"/>
<stop offset="1" stop-color="white" stop-opacity="0"/>
</linearGradient>
<linearGradient id="paint4_linear_341_11033" x1="77.8623" y1="94.7717" x2="59.6617" y2="115.198" gradientUnits="userSpaceOnUse">
<stop stop-color="white"/>
<stop offset="1" stop-color="white" stop-opacity="0"/>
</linearGradient>
<linearGradient id="paint5_linear_341_11033" x1="192.902" y1="118.747" x2="173.141" y2="134.411" gradientUnits="userSpaceOnUse">
<stop stop-color="white"/>
<stop offset="1" stop-color="white" stop-opacity="0"/>
</linearGradient>
<linearGradient id="paint6_linear_341_11033" x1="198.746" y1="28.7596" x2="193.64" y2="103.432" gradientUnits="userSpaceOnUse">
<stop stop-color="white"/>
<stop offset="1" stop-color="white" stop-opacity="0"/>
</linearGradient>
<linearGradient id="paint7_linear_341_11033" x1="185.448" y1="23.3521" x2="187.464" y2="102.82" gradientUnits="userSpaceOnUse">
<stop stop-color="white"/>
<stop offset="1" stop-color="white" stop-opacity="0"/>
</linearGradient>
<linearGradient id="paint8_linear_341_11033" x1="280.945" y1="124.753" x2="265.674" y2="148.346" gradientUnits="userSpaceOnUse">
<stop stop-color="white"/>
<stop offset="1" stop-color="white" stop-opacity="0"/>
</linearGradient>
</defs>
</svg>
