<svg width="20" height="16" viewBox="0 0 20 16" fill="none" xmlns="http://www.w3.org/2000/svg">
<path d="M6.43221 0.179998C6.89017 -0.111428 7.30649 -0.0489788 7.68118 0.367345C8.05587 0.742037 8.03506 1.13754 7.61873 1.55387C5.70364 3.34406 4.53793 5.1967 4.12161 7.1118C3.99671 7.73628 4.18406 8.04852 4.68365 8.04852C5.55793 8.04852 6.2865 8.4024 6.86935 9.11015C7.49384 9.77627 7.80608 10.6506 7.80608 11.733C7.80608 12.9403 7.4522 13.9187 6.74445 14.6681C6.07833 15.4175 5.16242 15.7922 3.99671 15.7922C2.87264 15.7922 1.91509 15.3758 1.12408 14.5432C0.374692 13.7105 0 12.5865 0 11.171C0 6.79955 2.14407 3.1359 6.43221 0.179998ZM18.4848 0.179998C18.9428 -0.111428 19.3591 -0.0489788 19.7338 0.367345C20.1085 0.742037 20.0876 1.13754 19.6713 1.55387C17.7146 3.34406 16.5489 5.1967 16.1742 7.1118C16.0493 7.73628 16.2366 8.04852 16.7362 8.04852C17.6105 8.04852 18.3391 8.4024 18.9219 9.11015C19.5048 9.77627 19.7962 10.6506 19.7962 11.733C19.7962 12.9403 19.4423 13.9187 18.7346 14.6681C18.0685 15.4175 17.1734 15.7922 16.0493 15.7922C14.9252 15.7922 13.9677 15.3758 13.1767 14.5432C12.4273 13.7105 12.0526 12.5865 12.0526 11.171C12.0526 6.79955 14.1967 3.1359 18.4848 0.179998Z" fill="#F0F0FF"/>
</svg>
