<svg width="48" height="48" viewBox="0 0 48 48" fill="none" xmlns="http://www.w3.org/2000/svg">
<g opacity="0.5">
<path d="M21.9406 14.8871C22.928 13.8203 24.1051 12.9755 25.4024 12.4024C26.6998 11.8293 28.0913 11.5394 29.495 11.5498C32.3286 11.5391 35.0537 12.714 37.0877 14.8233C38.0816 15.8485 38.8725 17.0769 39.4132 18.4355C39.954 19.7942 40.2336 21.2552 40.2354 22.7317C40.2354 26.0282 38.8404 28.96 36.3747 31.4967L35.645 34.4923H23.4572L22.9087 32.0372C20.3286 29.1563 18.9026 26.3825 18.769 23.2289V23.132C18.8644 19.8279 20.04 16.9547 21.943 14.8896L21.9406 14.8871Z" fill="#666BFF"/>
</g>
<g clip-path="url(#clip0_1233_577)">
<path d="M16.5 39.5V35.3832H18.7V37.9H17.6H17.1V38.4V39.5H16.5ZM16.6202 40.5H17.1V40.9798C16.9983 40.9279 16.9044 40.86 16.8222 40.7778C16.74 40.6956 16.6721 40.6017 16.6202 40.5ZM18.1 41.1V40.5H19.2H19.7V40V38.9H28.3V40V40.5H28.8H29.9V41.1H18.1ZM31.1778 40.7778C31.0956 40.86 31.0017 40.9279 30.9 40.9798V40.5H31.3798C31.3279 40.6017 31.26 40.6956 31.1778 40.7778ZM31.5 39.5H30.9V38.4V37.9H30.4H29.3V35.3832H31.5V39.5ZM29.3 39.5V38.9H29.9V39.5H29.3ZM18.1 38.9H18.7V39.5H18.1V38.9ZM24.5 10.1102C27.2509 10.2228 29.8881 11.2657 31.9754 13.0761C34.0624 14.8862 35.4675 17.3491 35.9681 20.056L34.8868 20.2089L34.8868 20.2094L33.7878 20.3648C33.3626 18.1826 32.2189 16.1996 30.5318 14.7371C28.8449 13.2748 26.7201 12.424 24.5 12.3125V10.1102ZM31.6105 29.0147L32.4783 29.6852L33.3499 30.3605C32.3843 31.6739 31.6693 33.0066 31.5262 34.38H29.318C29.4655 32.3202 30.5012 30.51 31.6105 29.0147ZM33.9522 29.5589L32.2135 28.212C32.8828 27.2544 33.3788 26.1852 33.6775 25.053C33.9765 23.9201 34.0725 22.7446 33.9625 21.5808L35.0627 21.423L36.1416 21.2704C36.4511 24.3346 35.5997 27.24 33.9522 29.5589ZM17.4675 14.7363C15.7804 16.1989 14.6369 18.182 14.2122 20.3643L13.1132 20.2089L13.1131 20.2094L12.0319 20.0565C12.5323 17.3494 13.9375 14.8863 16.0246 13.0761C18.1119 11.2657 20.7491 10.2228 23.5 10.1102V12.3124C21.2797 12.4233 19.1545 13.2739 17.4675 14.7363ZM16.4738 34.38C16.3307 33.0066 15.6157 31.6739 14.6501 30.3605L15.5217 29.6852L16.3894 29.0148C17.4966 30.5082 18.5341 32.3203 18.682 34.38H16.4738ZM12.197 25.6162C11.8223 24.1986 11.7079 22.7262 11.8577 21.2703L12.9373 21.423L14.0375 21.5808C13.9275 22.7446 14.0235 23.9201 14.3225 25.053C14.6212 26.1852 15.1172 27.2544 15.7865 28.212L14.0472 29.5594C13.1987 28.3683 12.5714 27.0327 12.197 25.6162ZM28.3 45.3V47.5H19.7V45.3H28.3ZM25.1 5.9H22.9V0.5H25.1V5.9ZM5.9 22.9V25.1H0.5V22.9H5.9ZM47.5 22.9V25.1H42.1V22.9H47.5ZM5.9328 7.57431L10.0257 11.6672L8.4672 13.2257L4.37431 9.1328L5.9328 7.57431ZM43.6257 9.1328L39.5328 13.2257L37.9743 11.6672L42.0672 7.57431L43.6257 9.1328Z" fill="#2B2D6B" stroke="#2B2D6B"/>
</g>
<defs>
<clipPath id="clip0_1233_577">
<rect width="48" height="48" fill="white"/>
</clipPath>
</defs>
</svg>
