<svg width="37" height="29" viewBox="0 0 37 29" fill="none" xmlns="http://www.w3.org/2000/svg">
<path opacity="0.5" d="M17.9384 1.58959C18.2774 1.35945 18.7226 1.35945 19.0616 1.58959L31.8293 10.256C32.6444 10.8092 32.2528 12.0834 31.2677 12.0834H5.73234C4.74723 12.0834 4.35565 10.8092 5.17072 10.256L17.9384 1.58959Z" fill="#666BFF"/>
<path d="M8.285 10.5089L8.2751 10.5156L8.26553 10.5228C8.24498 10.5381 8.22706 10.5448 8.21355 10.5474C8.20032 10.55 8.18698 10.5496 8.17262 10.5454C8.15789 10.5412 8.13841 10.5319 8.11685 10.5129L7.78737 10.8866L8.11685 10.5129C8.09505 10.4937 8.072 10.4651 8.05276 10.426C8.03351 10.3868 8.01971 10.3403 8.01444 10.2892C8.00916 10.2382 8.01284 10.1867 8.02466 10.1388C8.03648 10.0909 8.05546 10.0505 8.07734 10.019C8.09916 9.98763 8.12215 9.96754 8.1416 9.95557L8.15075 9.94995L8.15964 9.94394L18.5 2.95565L28.8274 9.93515C28.8666 9.96723 28.9098 10.0286 28.9288 10.1198L29.4183 10.0178L28.9288 10.1198C28.9489 10.2159 28.9351 10.3151 28.8973 10.392C28.8599 10.4683 28.8113 10.5 28.7823 10.5099C28.7593 10.5178 28.7338 10.5179 28.7032 10.5009L18.7799 3.79866L18.5 3.60965L18.2202 3.79866L8.285 10.5089Z" stroke="#334155"/>
<path d="M8.90741 20.9444C8.90741 21.1581 8.9796 21.3629 9.1081 21.514C9.23659 21.6651 9.41087 21.75 9.59259 21.75H27.4074C27.5891 21.75 27.7634 21.6651 27.8919 21.514C28.0204 21.3629 28.0926 21.1581 28.0926 20.9444C28.0926 20.7308 28.0204 20.5259 27.8919 20.3748C27.7634 20.2237 27.5891 20.1388 27.4074 20.1388H25.3519V14.2019H23.9815V20.1388H19.1852V14.2019H17.8148V20.1388H13.0185V14.2019H11.6482V20.1388H9.59259C9.41087 20.1388 9.23659 20.2237 9.1081 20.3748C8.9796 20.5259 8.90741 20.7308 8.90741 20.9444Z" fill="#334155"/>
<path d="M9.60632 11.2778H27.4211V12.8889H9.60632V11.2778Z" fill="#334155"/>
<path d="M28.7778 23.3611H8.22223C8.04051 23.3611 7.86623 23.446 7.73773 23.597C7.60924 23.7481 7.53705 23.953 7.53705 24.1666C7.53705 24.3803 7.60924 24.5852 7.73773 24.7363C7.86623 24.8873 8.04051 24.9722 8.22223 24.9722H28.7778C28.9595 24.9722 29.1338 24.8873 29.2623 24.7363C29.3908 24.5852 29.463 24.3803 29.463 24.1666C29.463 23.953 29.3908 23.7481 29.2623 23.597C29.1338 23.446 28.9595 23.3611 28.7778 23.3611Z" fill="#334155"/>
<path d="M21.3435 9.32835H23.543L18.9454 6.21891C18.862 6.16235 18.7675 6.13257 18.6713 6.13257C18.5751 6.13257 18.4806 6.16235 18.3972 6.21891L13.7928 9.32835H15.9922L18.6645 7.52391L21.3435 9.32835Z" fill="#334155"/>
</svg>
