<svg width="24" height="25" viewBox="0 0 24 25" fill="none" xmlns="http://www.w3.org/2000/svg">
<rect opacity="0.5" width="4.8" height="25" rx="2" fill="#666BFF"/>
<g clip-path="url(#clip0_1233_1000)">
<path d="M1.5 22.0625H23.5V22.5H0.5V0.5H1V21.5625V22.0625H1.5ZM21.5 7.04375V5.68779L20.6197 6.71915L15.2005 13.0683C15.2004 13.0683 15.2004 13.0684 15.2003 13.0685C15.1797 13.0926 15.1528 13.1137 15.1205 13.1292C15.0881 13.1449 15.0518 13.1543 15.0139 13.1561C14.976 13.1579 14.9384 13.1521 14.904 13.1394C14.8697 13.1267 14.8401 13.1079 14.8164 13.0853C14.8163 13.0852 14.8162 13.0851 14.8161 13.0851L10.936 9.36657L10.5309 8.97837L10.1917 9.4253L4.71509 16.6419C4.67766 16.6848 4.62099 16.7169 4.55358 16.7259C4.48331 16.7352 4.41408 16.7175 4.36117 16.6806C4.30889 16.6441 4.27882 16.5939 4.26962 16.544C4.26086 16.4965 4.27023 16.446 4.29961 16.4012L10.2923 8.50464L10.2926 8.50428C10.3121 8.47854 10.3384 8.45553 10.3708 8.43812C10.4033 8.42068 10.4404 8.40964 10.4796 8.40667C10.5187 8.4037 10.5578 8.40896 10.5937 8.42165C10.6296 8.43433 10.6606 8.45376 10.6852 8.47729L14.5985 12.2289L14.9808 12.5955L15.3248 12.1926L20.5478 6.07464L21.2518 5.25H20.1675H15.75C15.677 5.25 15.611 5.22201 15.5656 5.17849C15.5209 5.13567 15.5 5.08224 15.5 5.03125C15.5 4.98026 15.5209 4.92683 15.5656 4.88401C15.611 4.84049 15.677 4.8125 15.75 4.8125H21.75C21.823 4.8125 21.889 4.84049 21.9344 4.88401C21.9791 4.92684 22 4.98027 22 5.03125V10.7812C22 10.8322 21.9791 10.8857 21.9344 10.9285C21.889 10.972 21.823 11 21.75 11C21.677 11 21.611 10.972 21.5656 10.9285C21.5209 10.8857 21.5 10.8322 21.5 10.7812V7.04375Z" fill="#1E293B" stroke="#334155"/>
</g>
<defs>
<clipPath id="clip0_1233_1000">
<rect width="24" height="23" fill="white"/>
</clipPath>
</defs>
</svg>
