<svg width="30" height="29" viewBox="0 0 30 29" fill="none" xmlns="http://www.w3.org/2000/svg">
<rect opacity="0.5" x="5.55554" y="7.25" width="24.4444" height="20.5417" rx="3" fill="#666BFF"/>
<path d="M22.2222 8.45837H4.44445C3.21715 8.45837 2.22223 9.54035 2.22223 10.875V22.9584C2.22223 24.2931 3.21715 25.375 4.44445 25.375H22.2222C23.4495 25.375 24.4445 24.2931 24.4445 22.9584V10.875C24.4445 9.54035 23.4495 8.45837 22.2222 8.45837Z" stroke="#1E293B" stroke-width="1.5" stroke-linecap="round" stroke-linejoin="round"/>
<path d="M17.7778 25.375V6.04167C17.7778 5.40073 17.5437 4.78604 17.1269 4.33283C16.7102 3.87961 16.145 3.625 15.5556 3.625H11.1111C10.5218 3.625 9.95654 3.87961 9.53979 4.33283C9.12304 4.78604 8.88892 5.40073 8.88892 6.04167V25.375" stroke="#1E293B" stroke-width="1.5" stroke-linecap="round" stroke-linejoin="round"/>
</svg>
