<svg width="43" height="40" viewBox="0 0 43 40" fill="none" xmlns="http://www.w3.org/2000/svg">
<circle opacity="0.5" cx="24.8994" cy="19.6257" r="18" fill="#F3AAFF"/>
<path d="M20 38C29.9411 38 38 29.9411 38 20C38 10.0589 29.9411 2 20 2C10.0589 2 2 10.0589 2 20C2 29.9411 10.0589 38 20 38Z" stroke="#2B2D6B" stroke-width="2.5" stroke-linecap="round" stroke-linejoin="round"/>
<path d="M15.5 21.5H21.5C22.6935 21.5 23.8381 21.0259 24.682 20.182C25.5259 19.3381 26 18.1935 26 17C26 15.8065 25.5259 14.6619 24.682 13.818C23.8381 12.9741 22.6935 12.5 21.5 12.5H15.5V27.5" stroke="#2B2D6B" stroke-width="2.5" stroke-linecap="round" stroke-linejoin="round"/>
<path d="M21.7999 21.4814L25.9999 27.5002" stroke="#2B2D6B" stroke-width="2.5" stroke-linecap="round" stroke-linejoin="round"/>
</svg>
