<svg width="80" height="80" viewBox="0 0 80 80" fill="none" xmlns="http://www.w3.org/2000/svg">
<g opacity="0.5">
<path d="M79.2234 79.9851C79.2234 36.3121 43.6812 0.776512 0 0.776512V9.91821e-05C44.1142 9.91821e-05 80 35.8791 80 79.9851H79.2234Z" fill="#666BFF"/>
<path d="M70.8605 79.9851C70.8605 40.9258 39.0815 9.15276 0.0148926 9.15276V8.37635C39.5146 8.37635 71.6371 40.5077 71.6371 79.9851H70.8605Z" fill="#666BFF"/>
<path d="M62.4827 79.9851C62.4827 45.5394 34.4521 17.529 0.0148926 17.529V16.7526C34.9001 16.7526 63.2742 45.1213 63.2742 80L62.4827 79.9851Z" fill="#666BFF"/>
<path d="M54.1198 79.9851C54.1198 50.1531 29.8525 25.8903 0.0148926 25.8903V25.1139C30.2856 25.1139 54.8963 49.735 54.8963 79.9851H54.1198Z" fill="#666BFF"/>
<path d="M45.742 79.9851C45.742 54.7817 25.223 34.2666 0.0148926 34.2666V33.4902C25.6561 33.4752 46.5185 54.3487 46.5185 79.9851H45.742Z" fill="#666BFF"/>
<path d="M37.3642 79.9851C37.3642 59.3954 20.6085 42.6279 0 42.6279V41.8515C21.0267 41.8515 38.1408 58.9624 38.1408 79.9851H37.3642Z" fill="#666BFF"/>
<path d="M29.0013 79.9851C29.0013 64.009 15.994 51.0042 0.0148926 51.0042V50.2278C16.4271 50.2278 29.7778 63.576 29.7778 79.9851H29.0013Z" fill="#666BFF"/>
<path d="M20.6235 79.9851C20.6235 68.6226 11.3795 59.3804 0.0148926 59.3804V58.604C11.8125 58.604 21.415 68.2046 21.415 80L20.6235 79.9851Z" fill="#666BFF"/>
<path d="M12.2456 79.9851C12.2456 73.2363 6.75005 67.7417 0 67.7417V66.9653C7.18312 66.9653 13.0222 72.8033 13.0222 79.9851H12.2456Z" fill="#666BFF"/>
<path d="M4.24116 79.9851C4.24116 77.6559 2.34455 75.7597 0.0148926 75.7597V74.9832C2.77763 74.9832 5.0177 77.2229 5.0177 79.9851H4.24116Z" fill="#666BFF"/>
</g>
</svg>
