<svg width="526" height="572" viewBox="0 0 526 572" fill="none" xmlns="http://www.w3.org/2000/svg">
<path opacity="0.5" d="M146.196 199.603C205.639 172.861 254.804 197.886 263.501 255.523C265.011 265.545 255.163 278.722 243.232 284.093L49.2326 371.295C37.3008 376.666 27.4535 372.347 28.891 360.997C37.5883 295.554 86.7529 226.29 146.196 199.603Z" fill="url(#paint0_linear_301_4451)"/>
<path opacity="0.5" d="M79.9243 124.691C79.9243 164.5 109.826 183.325 146.699 166.715C183.573 150.16 213.402 104.427 213.402 64.6738C213.402 24.8651 183.501 6.04035 146.627 22.6504C109.754 39.2051 79.9243 84.9381 79.9243 124.691Z" fill="url(#paint1_linear_301_4451)"/>
<path opacity="0.07" d="M117.445 182.993C176.888 156.251 226.053 181.276 234.75 238.913C236.26 248.935 226.412 262.112 214.48 267.483L20.4813 354.685C8.54956 360.056 -1.29774 355.737 0.139822 344.387C8.83708 278.943 58.0017 209.68 117.445 182.993Z" fill="url(#paint2_linear_301_4451)"/>
<path opacity="0.07" d="M51.1731 108.081C51.1731 147.89 81.0744 166.715 117.948 150.105C154.749 133.55 184.651 87.8724 184.651 48.0637C184.651 8.25496 154.749 -10.5698 117.876 6.04029C81.0025 22.595 51.1731 68.3279 51.1731 108.081Z" fill="url(#paint3_linear_301_4451)"/>
<path opacity="0.2" d="M392.091 219.922L526 160.403V214.109L392.091 273.684V219.922Z" fill="url(#paint4_linear_301_4451)"/>
<path d="M498.758 190.523C498.758 194.952 502.137 197.001 506.377 195.174C510.546 193.291 513.996 188.197 513.996 183.768C513.996 179.339 510.618 177.29 506.377 179.117C502.208 181 498.758 186.093 498.758 190.523Z" fill="#F3AAFF"/>
<path opacity="0.15" d="M491.93 188.862L448.156 208.295V215.825L491.93 196.391V188.862Z" fill="white"/>
<path opacity="0.15" d="M491.715 204.032L405.964 242.18V249.71L491.715 211.562V204.032Z" fill="white"/>
<path opacity="0.05" d="M180.77 274.071L46.2856 333.867V556.94L180.77 497.144V274.071Z" fill="url(#paint5_linear_301_4451)"/>
<path opacity="0.3" d="M68.7117 348.927V572L203.196 512.204V289.131L68.7117 348.927ZM159.134 331.542L114.139 351.53V342.615L159.134 322.628V331.542Z" fill="url(#paint6_linear_301_4451)"/>
<path opacity="0.15" d="M190.257 430.372L82.2246 478.375V485.904L190.257 437.901V430.372Z" fill="white"/>
<path opacity="0.15" d="M182.71 448.421L89.772 489.725V497.255L182.71 455.951V448.421Z" fill="white"/>
<path d="M106.016 411.602C106.016 393.94 119.457 373.621 135.989 366.257C152.521 358.893 165.962 367.254 165.962 384.916C165.962 402.578 152.521 422.897 135.989 430.261C119.457 437.625 106.016 429.264 106.016 411.602Z" fill="#F3AAFF"/>
<path opacity="0.05" d="M348.246 94.5166L213.762 154.313V377.386L348.246 317.589V94.5166Z" fill="url(#paint7_linear_301_4451)"/>
<path opacity="0.3" d="M236.188 169.372V392.445L370.672 332.649V109.576L236.188 169.372ZM326.61 151.932L281.615 171.919V163.005L326.61 143.018V151.932Z" fill="url(#paint8_linear_301_4451)"/>
<path opacity="0.15" d="M357.734 250.762L249.701 298.765V306.295L357.734 258.292V250.762Z" fill="white"/>
<path opacity="0.15" d="M350.186 268.866L257.248 310.17V317.7L350.186 276.396V268.866Z" fill="white"/>
<path d="M273.492 232.048C273.492 214.386 286.933 194.066 303.465 186.702C319.997 179.338 333.439 187.699 333.439 205.361C333.439 223.023 319.997 243.343 303.465 250.706C286.933 258.07 273.492 249.71 273.492 232.048Z" fill="#F3AAFF"/>
<path opacity="0.3" d="M273.492 356.457L487.33 261.337L487.258 347.211L292.324 433.915L273.42 455.453L273.492 356.457Z" fill="url(#paint9_linear_301_4451)"/>
<path d="M510.187 294.834V271.524L429.468 307.402V330.712L510.187 294.834Z" fill="#F3AAFF"/>
<path opacity="0.15" d="M328.479 352.913L375.343 332.095V339.625L328.479 360.443V352.913Z" fill="white"/>
<path opacity="0.15" d="M328.479 368.029L418.83 327.888V335.418L328.479 375.559V368.029Z" fill="white"/>
<path opacity="0.15" d="M328.407 383.088L437.878 334.421V341.951L328.407 390.674V383.088Z" fill="white"/>
<path d="M316.907 365.925C316.907 373.012 311.444 381.15 304.759 384.14C298.075 387.13 292.612 383.808 292.612 376.721C292.612 369.634 298.075 361.495 304.759 358.505C311.516 355.516 316.907 358.838 316.907 365.925Z" fill="#F3AAFF"/>
<path opacity="0.2" d="M441.184 98.7798C436.871 100.662 433.421 105.313 433.421 109.133V126.02L418.902 132.443C414.589 134.325 411.139 138.976 411.139 142.796C411.139 146.617 414.589 148.167 418.902 146.285L433.421 139.862V156.749C433.421 160.569 436.871 162.119 441.184 160.237C445.496 158.354 448.947 153.704 448.947 149.883V132.996L463.466 126.574C467.779 124.691 471.229 120.041 471.229 116.22C471.229 112.4 467.779 110.85 463.466 112.732L448.947 119.155V102.268C448.947 98.4476 445.496 96.8973 441.184 98.7798Z" fill="url(#paint10_linear_301_4451)"/>
<defs>
<linearGradient id="paint0_linear_301_4451" x1="-99.0866" y1="155.972" x2="95.9442" y2="340.668" gradientUnits="userSpaceOnUse">
<stop stop-color="white"/>
<stop offset="1" stop-color="white" stop-opacity="0"/>
</linearGradient>
<linearGradient id="paint1_linear_301_4451" x1="23.964" y1="25.7377" x2="218.995" y2="210.434" gradientUnits="userSpaceOnUse">
<stop stop-color="white"/>
<stop offset="1" stop-color="white" stop-opacity="0"/>
</linearGradient>
<linearGradient id="paint2_linear_301_4451" x1="-127.837" y1="139.362" x2="67.1932" y2="324.058" gradientUnits="userSpaceOnUse">
<stop stop-color="white"/>
<stop offset="1" stop-color="white" stop-opacity="0"/>
</linearGradient>
<linearGradient id="paint3_linear_301_4451" x1="-4.78748" y1="9.12755" x2="190.243" y2="193.824" gradientUnits="userSpaceOnUse">
<stop stop-color="white"/>
<stop offset="1" stop-color="white" stop-opacity="0"/>
</linearGradient>
<linearGradient id="paint4_linear_301_4451" x1="443.931" y1="196.873" x2="463.889" y2="241.761" gradientUnits="userSpaceOnUse">
<stop stop-color="white"/>
<stop offset="1" stop-color="white" stop-opacity="0"/>
</linearGradient>
<linearGradient id="paint5_linear_301_4451" x1="35.4645" y1="311.328" x2="145.468" y2="558.744" gradientUnits="userSpaceOnUse">
<stop stop-color="white"/>
<stop offset="1" stop-color="white" stop-opacity="0"/>
</linearGradient>
<linearGradient id="paint6_linear_301_4451" x1="57.8749" y1="326.368" x2="150.864" y2="535.515" gradientUnits="userSpaceOnUse">
<stop stop-color="white"/>
<stop offset="1" stop-color="white" stop-opacity="0"/>
</linearGradient>
<linearGradient id="paint7_linear_301_4451" x1="202.936" y1="131.768" x2="312.939" y2="379.183" gradientUnits="userSpaceOnUse">
<stop stop-color="white"/>
<stop offset="1" stop-color="white" stop-opacity="0"/>
</linearGradient>
<linearGradient id="paint8_linear_301_4451" x1="225.347" y1="146.807" x2="318.336" y2="355.955" gradientUnits="userSpaceOnUse">
<stop stop-color="white"/>
<stop offset="1" stop-color="white" stop-opacity="0"/>
</linearGradient>
<linearGradient id="paint9_linear_301_4451" x1="320.128" y1="322.059" x2="407.746" y2="411.12" gradientUnits="userSpaceOnUse">
<stop stop-color="white"/>
<stop offset="1" stop-color="white" stop-opacity="0"/>
</linearGradient>
<linearGradient id="paint10_linear_301_4451" x1="426.153" y1="120.371" x2="455.95" y2="150.899" gradientUnits="userSpaceOnUse">
<stop stop-color="white"/>
<stop offset="1" stop-color="white" stop-opacity="0"/>
</linearGradient>
</defs>
</svg>
