<svg width="48" height="48" viewBox="0 0 48 48" fill="none" xmlns="http://www.w3.org/2000/svg">
<rect opacity="0.5" x="9" y="14" width="36" height="23" rx="2" fill="#F3AAFF"/>
<path d="M39 10.5H9C7.34315 10.5 6 11.8431 6 13.5V34.5C6 36.1569 7.34315 37.5 9 37.5H39C40.6569 37.5 42 36.1569 42 34.5V13.5C42 11.8431 40.6569 10.5 39 10.5Z" stroke="#2B2D6B" stroke-width="2.5" stroke-linecap="round" stroke-linejoin="round"/>
<path d="M6 22.5H16.65C16.9955 22.4981 17.3307 22.617 17.5978 22.8361C17.8648 23.0553 18.0469 23.3608 18.1125 23.7C18.399 25.0491 19.14 26.2589 20.2118 27.127C21.2835 27.995 22.6208 28.4687 24 28.4687C25.3792 28.4687 26.7165 27.995 27.7882 27.127C28.86 26.2589 29.601 25.0491 29.8875 23.7C29.9531 23.3608 30.1352 23.0553 30.4022 22.8361C30.6693 22.617 31.0045 22.4981 31.35 22.5H42" stroke="#2B2D6B" stroke-width="2.5" stroke-linecap="round" stroke-linejoin="round"/>
<path d="M6 16.5H42" stroke="#2B2D6B" stroke-width="2.5" stroke-linecap="round" stroke-linejoin="round"/>
</svg>
