<svg width="32" height="32" viewBox="0 0 32 32" fill="none" xmlns="http://www.w3.org/2000/svg">
<path d="M26 18H20V14.898C20.0277 13.5316 20.4285 12.1989 21.159 11.044C21.8938 9.80968 22.1593 8.352 21.907 6.93789C21.6547 5.52378 20.9014 4.24791 19.785 3.34396C18.9791 2.68699 18.0163 2.25083 16.991 2.07828C15.9657 1.90573 14.9131 2.00271 13.9366 2.35972C12.9601 2.71672 12.0931 3.32148 11.4209 4.11465C10.7486 4.90781 10.2941 5.86213 10.102 6.88396C9.82641 8.31992 10.0929 9.80706 10.85 11.058C11.5678 12.1747 11.9656 13.4669 12 14.794V18H6C5.46973 18.0005 4.96133 18.2114 4.58637 18.5863C4.21141 18.9613 4.00053 19.4697 4 20V24C4.00053 24.5302 4.21141 25.0386 4.58637 25.4136C4.96133 25.7885 5.46973 25.9994 6 26V28C6.00053 28.5302 6.21141 29.0386 6.58637 29.4136C6.96133 29.7885 7.46973 29.9994 8 30H24C24.5303 29.9994 25.0387 29.7885 25.4136 29.4136C25.7886 29.0386 25.9995 28.5302 26 28V26C26.5303 25.9994 27.0387 25.7885 27.4136 25.4136C27.7886 25.0386 27.9995 24.5302 28 24V20C27.9995 19.4697 27.7886 18.9613 27.4136 18.5863C27.0387 18.2114 26.5303 18.0005 26 18ZM12.07 7.24396C12.1771 6.66946 12.4088 6.12541 12.7488 5.65008C13.0887 5.17475 13.5287 4.77968 14.0378 4.49268C14.5468 4.20567 15.1126 4.03369 15.6953 3.98884C16.2779 3.944 16.8634 4.02737 17.4104 4.23309C17.9573 4.43881 18.4526 4.76189 18.8613 5.1796C19.27 5.5973 19.5822 6.09949 19.776 6.65083C19.9698 7.20217 20.0403 7.78927 19.9828 8.37083C19.9253 8.95238 19.741 9.51427 19.443 10.017C18.6994 11.2285 18.2295 12.5879 18.066 14H13.94C13.7826 12.5895 13.3125 11.2318 12.564 10.026C12.0608 9.19169 11.8848 8.20047 12.07 7.24396ZM18 16V18H14V16H18ZM24 28H8V26H24V28ZM6 24V20H26V24H6Z" fill="#696EFF"/>
</svg>
