<svg width="32" height="32" viewBox="0 0 32 32" fill="none" xmlns="http://www.w3.org/2000/svg">
<path d="M9.6001 3.19995C8.7514 3.19995 7.93747 3.53709 7.33736 4.13721C6.73724 4.73733 6.4001 5.55126 6.4001 6.39995V14.7312C6.9231 14.5831 7.45874 14.484 8.0001 14.4352V6.39995C8.0001 5.9756 8.16867 5.56864 8.46873 5.26858C8.76879 4.96852 9.17575 4.79995 9.6001 4.79995H16.0001V10.4C16.0001 11.0365 16.253 11.6469 16.703 12.097C17.1531 12.5471 17.7636 12.8 18.4001 12.8H24.0001V25.6C24.0001 26.0243 23.8315 26.4313 23.5315 26.7313C23.2314 27.0314 22.8244 27.2 22.4001 27.2H16.6401C16.3488 27.7699 15.9964 28.3064 15.5889 28.8H22.4001C23.2488 28.8 24.0627 28.4628 24.6628 27.8627C25.263 27.2626 25.6001 26.4486 25.6001 25.6V11.8624C25.5995 11.226 25.3463 10.616 24.8961 10.1664L18.6337 3.90235C18.1838 3.45272 17.5738 3.20009 16.9377 3.19995H9.6001ZM23.6689 11.2H18.4001C18.1879 11.2 17.9844 11.1157 17.8344 10.9656C17.6844 10.8156 17.6001 10.6121 17.6001 10.4V5.13115L23.6689 11.2ZM16.0001 23.2C16.0001 25.1095 15.2415 26.9409 13.8913 28.2911C12.541 29.6414 10.7097 30.4 8.8001 30.4C6.89054 30.4 5.05919 29.6414 3.70893 28.2911C2.35867 26.9409 1.6001 25.1095 1.6001 23.2C1.6001 21.2904 2.35867 19.459 3.70893 18.1088C5.05919 16.7585 6.89054 16 8.8001 16C10.7097 16 12.541 16.7585 13.8913 18.1088C15.2415 19.459 16.0001 21.2904 16.0001 23.2ZM9.6001 20C9.6001 19.7878 9.51581 19.5843 9.36578 19.4343C9.21575 19.2842 9.01227 19.2 8.8001 19.2C8.58792 19.2 8.38444 19.2842 8.23441 19.4343C8.08438 19.5843 8.0001 19.7878 8.0001 20V22.4H5.6001C5.38792 22.4 5.18444 22.4842 5.03441 22.6343C4.88438 22.7843 4.8001 22.9878 4.8001 23.2C4.8001 23.4121 4.88438 23.6156 5.03441 23.7656C5.18444 23.9157 5.38792 24 5.6001 24H8.0001V26.4C8.0001 26.6121 8.08438 26.8156 8.23441 26.9656C8.38444 27.1157 8.58792 27.2 8.8001 27.2C9.01227 27.2 9.21575 27.1157 9.36578 26.9656C9.51581 26.8156 9.6001 26.6121 9.6001 26.4V24H12.0001C12.2123 24 12.4158 23.9157 12.5658 23.7656C12.7158 23.6156 12.8001 23.4121 12.8001 23.2C12.8001 22.9878 12.7158 22.7843 12.5658 22.6343C12.4158 22.4842 12.2123 22.4 12.0001 22.4H9.6001V20Z" fill="#696EFF"/>
</svg>
