<svg width="27" height="29" viewBox="0 0 27 29" fill="none" xmlns="http://www.w3.org/2000/svg">
<ellipse opacity="0.5" cx="13.5" cy="14" rx="7.5" ry="8" fill="#666BFF"/>
<path d="M23.3333 13.8959C23.3371 15.4907 22.9945 17.064 22.3333 18.4875C21.5493 20.1934 20.3441 21.6282 18.8527 22.6312C17.3613 23.6343 15.6425 24.166 13.8889 24.1667C12.4223 24.1709 10.9757 23.7982 9.66665 23.0792L3.33331 25.375L5.44442 18.4875C4.78324 17.064 4.4406 15.4907 4.44442 13.8959C4.4451 11.9888 4.93399 10.1196 5.85633 8.4977C6.77868 6.87575 8.09804 5.56509 9.66665 4.71253C10.9757 3.99349 12.4223 3.62088 13.8889 3.62503H14.4444C16.7604 3.76398 18.9478 4.82704 20.5879 6.61066C22.228 8.39427 23.2055 10.7731 23.3333 13.2917V13.8959Z" stroke="#1E293B" stroke-width="1.5" stroke-linecap="round" stroke-linejoin="round"/>
</svg>
